<svg width="664" height="104" viewBox="0 0 664 104" fill="none" xmlns="http://www.w3.org/2000/svg">
<g clip-path="url(#clip0_154_479)">
<path d="M2 8.74228e-08C2 -1.10457 1.10457 -2 8.74228e-08 -2C-1.10457 -2 -2 -1.10457 -2 -8.74228e-08L2 8.74228e-08ZM-1.41422 105.414C-0.63317 106.195 0.63316 106.195 1.41421 105.414L14.1421 92.6863C14.9232 91.9052 14.9232 90.6389 14.1421 89.8579C13.3611 89.0768 12.0948 89.0768 11.3137 89.8579L-4.42235e-06 101.172L-11.3137 89.8579C-12.0948 89.0768 -13.3611 89.0768 -14.1421 89.8579C-14.9232 90.6389 -14.9232 91.9052 -14.1421 92.6863L-1.41422 105.414ZM-2 -8.74228e-08L-2 104L2 104L2 8.74228e-08L-2 -8.74228e-08Z" fill="url(#paint0_linear_154_479)"/>
<path d="M334 8.74228e-08C334 -1.10457 333.105 -2 332 -2C330.895 -2 330 -1.10457 330 -8.74228e-08L334 8.74228e-08ZM330.586 105.414C331.367 106.195 332.633 106.195 333.414 105.414L346.142 92.6863C346.923 91.9052 346.923 90.6389 346.142 89.8579C345.361 89.0768 344.095 89.0768 343.314 89.8579L332 101.172L320.686 89.8579C319.905 89.0768 318.639 89.0768 317.858 89.8579C317.077 90.6389 317.077 91.9052 317.858 92.6863L330.586 105.414ZM330 -8.74228e-08L330 104L334 104L334 8.74228e-08L330 -8.74228e-08Z" fill="url(#paint1_linear_154_479)"/>
<path d="M666 8.74228e-08C666 -1.10457 665.105 -2 664 -2C662.895 -2 662 -1.10457 662 -8.74228e-08L666 8.74228e-08ZM662.586 105.414C663.367 106.195 664.633 106.195 665.414 105.414L678.142 92.6863C678.923 91.9052 678.923 90.6389 678.142 89.8579C677.361 89.0768 676.095 89.0768 675.314 89.8579L664 101.172L652.686 89.8579C651.905 89.0768 650.639 89.0768 649.858 89.8579C649.077 90.6389 649.077 91.9052 649.858 92.6863L662.586 105.414ZM662 -8.74228e-08L662 104L666 104L666 8.74228e-08L662 -8.74228e-08Z" fill="url(#paint2_linear_154_479)"/>
</g>
<defs>
<linearGradient id="paint0_linear_154_479" x1="-0.500005" y1="104" x2="-0.5" y2="-2.18557e-08" gradientUnits="userSpaceOnUse">
<stop stop-color="#008DF0"/>
<stop offset="1" stop-color="white"/>
</linearGradient>
<linearGradient id="paint1_linear_154_479" x1="331.5" y1="104" x2="331.5" y2="-2.18557e-08" gradientUnits="userSpaceOnUse">
<stop stop-color="#008DF0"/>
<stop offset="1" stop-color="white"/>
</linearGradient>
<linearGradient id="paint2_linear_154_479" x1="663.5" y1="104" x2="663.5" y2="-2.18557e-08" gradientUnits="userSpaceOnUse">
<stop stop-color="#008DF0"/>
<stop offset="1" stop-color="white"/>
</linearGradient>
<clipPath id="clip0_154_479">
<rect width="664" height="104" fill="white"/>
</clipPath>
</defs>
</svg>
